# xmcd
#
# Track frame offsets:
#	150
#	13400
#	22110
#	33107
#	44842
#	53422
#	60932
#	74575
#	88345
#	101432
#	113287
#	125475
#	136875
#	146880
#	160962
#	173645
#	186965
#	196587
#	209807
#
# Disc length: 2930
#
# Revision: 1
# Processed by: cddbd v1.5.1PL0 Copyright (c) Steve Scherf et al.
# Submitted via: VisiTrax 2.9.6.190 - For more info visit www.synapsa.com
# Normalized: r0:DSETVAR1
#
DISCID=120b7013
DTITLE=Various Artist - Country Favourites disc 4
DYEAR=1996
DGENRE=Country
TTITLE0=Bobby Helms - My Special angel
TTITLE1=Ferlin Husky - Wings of a dove
TTITLE2=Carl Perkins - Dixie Fried
TTITLE3=Patsy Cline - Today, tomorrow and forever
TTITLE4=Conway Twitty - Blue is the way that I feel
TTITLE5=George Jones - Ragged but right
TTITLE6=Willie Nelson - You'll always have someone
TTITLE7=Freddy Fender - Wasted days and wasted nights
TTITLE8=Donna Fargo - Daddy
TTITLE9=Roy Drusky - Take these chains from my heart
TTITLE10=Stonewall Jackson - Ol' Blue
TTITLE11=Timi Yuro, Willie Nelson - There's a way
TTITLE12=Barbara Mandrell - Kaw-liga
TTITLE13=Kenny Rogers and the First Edition - Sunshine
TTITLE14=Kitty Wells - Making Believe
TTITLE15=Don Williams - Ruby Tuesday
TTITLE16=Ned Miller - From a Jack to a King
TTITLE17=Lynn Anderson - Rose Garden
TTITLE18=Buck Owens - Rhythm and Booze
EXTD=
EXTT0=
EXTT1=
EXTT2=
EXTT3=
EXTT4=
EXTT5=
EXTT6=
EXTT7=
EXTT8=
EXTT9=
EXTT10=
EXTT11=
EXTT12=
EXTT13=
EXTT14=
EXTT15=
EXTT16=
EXTT17=
EXTT18=
PLAYORDER=
